<svg width="92" height="26" fill="none" xmlns="http://www.w3.org/2000/svg"><path fill-rule="evenodd" clip-rule="evenodd" d="m33.683 0 12.21 26h-24.42l12.21-26Zm-7.168 22.833H40.85l-7.167-15.28-7.168 15.28Z" fill="#8F42DB"/><path d="M73.157 1.857H92v3.167H76.382v7.305h12.637v3.167H76.38V26h-3.224V1.857ZM52.914 1.857H49.69V26h18.94v-3.167H52.913V1.857ZM3.224 1.857H0V26h3.224V11.328c2.135.144 4.118.745 5.961 1.804l.004.002c2.159 1.229 3.857 2.897 5.108 5.017l.002.004c1.247 2.094 1.87 4.371 1.87 6.85V26h3.224V1.857H16.17v13.317a16.896 16.896 0 0 0-1.698-1.973 16.823 16.823 0 0 0-5.541-3.72 16.82 16.82 0 0 0-5.706-1.325V1.857Z" fill="#8F42DB"/></svg>